<?xml version="1.0" encoding="utf-8"?>
<!-- Generator: Adobe Illustrator 19.0.0, SVG Export Plug-In . SVG Version: 6.00 Build 0)  -->
<svg version="1.1" xmlns="http://www.w3.org/2000/svg" xmlns:xlink="http://www.w3.org/1999/xlink" x="0px" y="0px"
	 viewBox="0 0 960 560" style="enable-background:new 0 0 960 560;" xml:space="preserve">
<style type="text/css">
	.st0{display:none;}
	.st1{display:inline;fill:#DAEFE4;}
	.st2{fill:#E6E6E6;}
	.st3{fill:#FFFFFF;}
	.st4{fill:#F2F2F2;}
	.st5{fill:#E6B110;}
	.st6{font-family:'OpenSans';}
	.st7{font-size:14.128px;}
	.st8{fill:none;stroke:#0F88EB;stroke-miterlimit:10;}
	.st9{fill:#0F88EB;}
	.st10{fill:#0071BC;}
	.st11{font-size:18px;}
	.st12{font-family:'FuturaBT-Bold';}
	.st13{font-size:28.2353px;}
	.st14{fill:none;stroke:#0F88EB;stroke-width:4;stroke-miterlimit:10;}
</style>
<g id="Layer_2" class="st0">
	<rect id="XMLID_290_" class="st1" width="960" height="560"/>
</g>
<g id="shadow">
	<rect id="XMLID_1_" x="8.6" y="41.5" class="st2" width="277" height="451.2"/>
	<rect id="XMLID_44_" x="676.9" y="41.5" class="st2" width="277" height="451.2"/>
	<rect id="XMLID_63_" x="342.5" y="41" class="st2" width="277" height="302.7"/>
</g>
<g id="tiles">
	<rect id="XMLID_269_" x="2.4" y="36" class="st3" width="277" height="451.2"/>
	<rect id="XMLID_268_" x="671.9" y="36" class="st3" width="277" height="451.2"/>
	<rect id="XMLID_181_" x="337.2" y="36" class="st3" width="277" height="302.7"/>
</g>
<g id="Layer_1">
	<g id="XMLID_5_">
		<path id="XMLID_117_" class="st4" d="M208,186.1H80.1c-4.4,0-8.1-3.6-8.1-8.1v-28.6c0-4.4,3.6-8.1,8.1-8.1H208
			c4.4,0,8.1,3.6,8.1,8.1V178C216.1,182.4,212.5,186.1,208,186.1z"/>
	</g>
	<g id="XMLID_163_">
		<path id="XMLID_165_" class="st5" d="M204.8,183.1H76.9c-4.4,0-8.1-3.6-8.1-8.1v-28.6c0-4.4,3.6-8.1,8.1-8.1h127.9
			c4.4,0,8.1,3.6,8.1,8.1V175C212.9,179.4,209.3,183.1,204.8,183.1z"/>
	</g>
	<text id="XMLID_162_" transform="matrix(1 0 0 1 87.4135 164.8384)" class="st3 st6 st7">Upload STL Files</text>
	<g id="XMLID_17_">
		<path id="XMLID_45_" class="st4" d="M867.7,263.6H759.1c-4.4,0-8.1-3.6-8.1-8.1v-28.6c0-4.4,3.6-8.1,8.1-8.1h108.6
			c4.4,0,8.1,3.6,8.1,8.1v28.6C875.8,259.9,872.1,263.6,867.7,263.6z"/>
	</g>
	<g id="XMLID_161_">
		<path id="XMLID_125_" class="st5" d="M864.7,260.6H756.1c-4.4,0-8.1-3.6-8.1-8.1v-28.6c0-4.4,3.6-8.1,8.1-8.1h108.6
			c4.4,0,8.1,3.6,8.1,8.1v28.6C872.8,256.9,869.2,260.6,864.7,260.6z"/>
	</g>
	<text id="XMLID_160_" transform="matrix(1 0 0 1 764.0674 242.3417)" class="st3 st6 st7">Filter and Sort</text>
	<g id="XMLID_12_">
		<path id="XMLID_41_" class="st4" d="M914.4,186.1H712.8c-4.4,0-8.1-3.6-8.1-8.1v-28.6c0-4.4,3.6-8.1,8.1-8.1h201.7
			c4.4,0,8.1,3.6,8.1,8.1V178C922.5,182.4,918.9,186.1,914.4,186.1z"/>
	</g>
	<g id="XMLID_157_">
		<path id="XMLID_129_" class="st5" d="M911.2,183.1H709.6c-4.4,0-8.1-3.6-8.1-8.1v-28.6c0-4.4,3.6-8.1,8.1-8.1h201.7
			c4.4,0,8.1,3.6,8.1,8.1V175C919.3,179.4,915.7,183.1,911.2,183.1z"/>
	</g>
	<text id="XMLID_156_" transform="matrix(1 0 0 1 712.6919 164.8391)" class="st3 st6 st7">View Recommended Services </text>
	<g id="XMLID_24_">
		<path id="XMLID_124_" class="st4" d="M867.7,341.7H759.1c-4.4,0-8.1-3.6-8.1-8.1v-28.6c0-4.4,3.6-8.1,8.1-8.1h108.6
			c4.4,0,8.1,3.6,8.1,8.1v28.6C875.8,338.1,872.2,341.7,867.7,341.7z"/>
	</g>
	<g id="XMLID_153_">
		<path id="XMLID_130_" class="st5" d="M864.7,338.7H756.1c-4.4,0-8.1-3.6-8.1-8.1v-28.6c0-4.4,3.6-8.1,8.1-8.1h108.6
			c4.4,0,8.1,3.6,8.1,8.1v28.6C872.8,335.1,869.2,338.7,864.7,338.7z"/>
	</g>
	<text id="XMLID_152_" transform="matrix(1 0 0 1 759.9908 320.5071)" class="st3 st6 st7">Select a Service</text>
	<g id="XMLID_32_">
		<path id="XMLID_138_" class="st4" d="M894.3,419.7H732.6c-4.4,0-8.1-3.6-8.1-8.1v-28.6c0-4.4,3.6-8.1,8.1-8.1h161.7
			c4.4,0,8.1,3.6,8.1,8.1v28.6C902.4,416.1,898.7,419.7,894.3,419.7z"/>
	</g>
	<g id="XMLID_149_">
		<path id="XMLID_137_" class="st5" d="M891.8,416.7H730.1c-4.4,0-8.1-3.6-8.1-8.1v-28.6c0-4.4,3.6-8.1,8.1-8.1h161.7
			c4.4,0,8.1,3.6,8.1,8.1v28.6C899.9,413.1,896.3,416.7,891.8,416.7z"/>
	</g>
	<text id="XMLID_148_" transform="matrix(1 0 0 1 733.7284 398.5096)" class="st3 st6 st7">Finalize Material Details</text>
	<g id="XMLID_59_">
		<path id="XMLID_134_" class="st4" d="M560.4,186.1H396.8c-4.4,0-8.1-3.6-8.1-8.1v-28.6c0-4.4,3.6-8.1,8.1-8.1h163.6
			c4.4,0,8.1,3.6,8.1,8.1V178C568.5,182.4,564.9,186.1,560.4,186.1z"/>
	</g>
	<g id="XMLID_103_">
		<path id="XMLID_97_" class="st5" d="M557.5,183.1H393.9c-4.4,0-8.1-3.6-8.1-8.1v-28.6c0-4.4,3.6-8.1,8.1-8.1h163.6
			c4.4,0,8.1,3.6,8.1,8.1V175C565.6,179.4,562,183.1,557.5,183.1z"/>
	</g>
	<text id="XMLID_92_" transform="matrix(1 0 0 1 398.354 164.8384)" class="st3 st6 st7">Scroll Material Features</text>
	<g id="XMLID_7_">
		<path id="XMLID_110_" class="st4" d="M569.4,263.6H388.6c-4.4,0-8.1-3.6-8.1-8.1v-28.6c0-4.4,3.6-8.1,8.1-8.1h180.8
			c4.4,0,8.1,3.6,8.1,8.1v28.6C577.5,259.9,573.9,263.6,569.4,263.6z"/>
	</g>
	<g id="XMLID_61_">
		<path id="XMLID_98_" class="st5" d="M566.2,260.6H385.5c-4.4,0-8.1-3.6-8.1-8.1v-28.6c0-4.4,3.6-8.1,8.1-8.1h180.8
			c4.4,0,8.1,3.6,8.1,8.1v28.6C574.3,256.9,570.7,260.6,566.2,260.6z"/>
	</g>
	<text id="XMLID_60_" transform="matrix(1 0 0 1 390.3978 242.3423)" class="st3 st6 st7">Select a Material Category</text>
	<g id="XMLID_8_">
		<path id="XMLID_91_" class="st4" d="M248.8,263.6H39.4c-4.4,0-8.1-3.6-8.1-8.1v-28.6c0-4.4,3.6-8.1,8.1-8.1h209.4
			c4.4,0,8.1,3.6,8.1,8.1v28.6C256.9,259.9,253.3,263.6,248.8,263.6z"/>
	</g>
	<g id="XMLID_155_">
		<path id="XMLID_62_" class="st5" d="M245.6,260.6H36.1c-4.4,0-8.1-3.6-8.1-8.1v-28.6c0-4.4,3.6-8.1,8.1-8.1h209.4
			c4.4,0,8.1,3.6,8.1,8.1v28.6C253.7,256.9,250,260.6,245.6,260.6z"/>
	</g>
	<text id="XMLID_154_" transform="matrix(1 0 0 1 48.7822 242.3423)" class="st3 st6 st7">Preview Models in 3D Space</text>
	<g id="XMLID_10_">
		<path id="XMLID_108_" class="st4" d="M228.2,341.7H62c-4.4,0-8.1-3.6-8.1-8.1v-28.6c0-4.4,3.6-8.1,8.1-8.1h166.3
			c4.4,0,8.1,3.6,8.1,8.1v28.6C236.3,338.1,232.7,341.7,228.2,341.7z"/>
	</g>
	<g id="XMLID_147_">
		<path id="XMLID_109_" class="st5" d="M224,338.7H57.7c-4.4,0-8.1-3.6-8.1-8.1v-28.6c0-4.4,3.6-8.1,8.1-8.1H224
			c4.4,0,8.1,3.6,8.1,8.1v28.6C232.1,335.1,228.5,338.7,224,338.7z"/>
	</g>
	<text id="XMLID_146_" transform="matrix(1 0 0 1 66.249 320.5071)" class="st3 st6 st7">Customize Parameters</text>
	<g id="XMLID_14_">
		<path id="XMLID_118_" class="st4" d="M214.4,419.7H72.8c-4.4,0-8.1-3.6-8.1-8.1v-28.6c0-4.4,3.6-8.1,8.1-8.1h141.6
			c4.4,0,8.1,3.6,8.1,8.1v28.6C222.5,416.1,218.8,419.7,214.4,419.7z"/>
	</g>
	<g id="XMLID_143_">
		<path id="XMLID_145_" class="st5" d="M211.6,416.7H70.1c-4.4,0-8.1-3.6-8.1-8.1v-28.6c0-4.4,3.6-8.1,8.1-8.1h141.6
			c4.4,0,8.1,3.6,8.1,8.1v28.6C219.7,413.1,216.1,416.7,211.6,416.7z"/>
	</g>
	<text id="XMLID_139_" transform="matrix(1 0 0 1 72.592 398.5096)" class="st3 st6 st7">View Printability Test</text>
	<g id="XMLID_116_">
		<line id="XMLID_105_" class="st5" x1="141" y1="183" x2="141" y2="216"/>
		<g id="XMLID_100_">
			<line id="XMLID_104_" class="st8" x1="140.5" y1="183" x2="140.5" y2="215"/>
			<g id="XMLID_101_">
				<polygon id="XMLID_102_" class="st9" points="136.8,211.6 137.5,210.9 140.9,214.5 144.2,210.9 145,211.6 140.9,216 				"/>
			</g>
		</g>
	</g>
	<g id="XMLID_106_">
		<line id="XMLID_96_" class="st5" x1="141" y1="261" x2="141" y2="294"/>
		<g id="XMLID_87_">
			<line id="XMLID_95_" class="st8" x1="140.5" y1="261" x2="140.5" y2="293"/>
			<g id="XMLID_89_">
				<polygon id="XMLID_94_" class="st9" points="136.8,289.6 137.5,288.9 140.9,292.5 144.2,288.9 145,289.6 140.9,294 				"/>
			</g>
		</g>
	</g>
	<g id="XMLID_37_">
		<line id="XMLID_85_" class="st5" x1="141" y1="339" x2="141" y2="372"/>
		<g id="XMLID_77_">
			<line id="XMLID_84_" class="st8" x1="140.5" y1="339" x2="140.5" y2="371"/>
			<g id="XMLID_82_">
				<polygon id="XMLID_83_" class="st9" points="136.8,367.6 137.5,366.9 140.9,370.5 144.2,366.9 145,367.6 140.9,372 				"/>
			</g>
		</g>
	</g>
	<g id="XMLID_13_">
		<line id="XMLID_136_" class="st5" x1="476" y1="183" x2="476" y2="216"/>
		<g id="XMLID_112_">
			<line id="XMLID_119_" class="st8" x1="475.5" y1="183" x2="475.5" y2="215"/>
			<g id="XMLID_113_">
				<polygon id="XMLID_115_" class="st9" points="471.6,211.6 472.4,210.9 475.7,214.5 479.1,210.9 479.8,211.6 475.7,216 				"/>
			</g>
		</g>
	</g>
	<g id="XMLID_25_">
		<line id="XMLID_132_" class="st5" x1="810" y1="183" x2="810" y2="216"/>
		<g id="XMLID_73_">
			<line id="XMLID_131_" class="st8" x1="809.5" y1="183" x2="809.5" y2="215"/>
			<g id="XMLID_74_">
				<polygon id="XMLID_123_" class="st9" points="805.9,211.4 806.6,210.8 809.9,214.4 813.3,210.8 814,211.4 809.9,215.8 				"/>
			</g>
		</g>
	</g>
	<g id="XMLID_78_">
		<g id="XMLID_67_">
			<line id="XMLID_71_" class="st8" x1="810.5" y1="261" x2="810.5" y2="293"/>
			<g id="XMLID_68_">
				<polygon id="XMLID_69_" class="st9" points="806.3,289.6 807,288.9 810.4,292.5 813.7,288.9 814.5,289.6 810.4,294 				"/>
			</g>
		</g>
	</g>
	<g id="XMLID_70_">
		<line id="XMLID_64_" class="st5" x1="810" y1="339" x2="810" y2="372"/>
		<g id="XMLID_51_">
			<line id="XMLID_57_" class="st8" x1="810.5" y1="339" x2="810.5" y2="371"/>
			<g id="XMLID_52_">
				<polygon id="XMLID_53_" class="st9" points="806.3,367.6 807,366.9 810.4,370.5 813.7,366.9 814.5,367.6 810.4,372 				"/>
			</g>
		</g>
	</g>
	<text id="XMLID_4_" transform="matrix(1 0 0 1 39.8083 104.0806)" class="st10 st6 st11">UPLOAD YOUR MODELS</text>
	<text id="XMLID_46_" transform="matrix(1 0 0 1 393.2847 104.0806)" class="st10 st6 st11">SELECT A MATERIAL</text>
	<text id="XMLID_19_" transform="matrix(1 0 0 1 771.7922 92.0806)"><tspan x="0" y="0" class="st10 st6 st11">CHOOSE </tspan><tspan x="-61" y="24" class="st10 st6 st11">A 3D PRINTING SERVICE</tspan></text>
</g>
<g id="sequence">
	<circle id="XMLID_31_" class="st9" cx="141" cy="36" r="26.7"/>
	<text id="XMLID_29_" transform="matrix(1 0 0 1 132.079 44.7949)" class="st3 st12 st13">1</text>
	<circle id="XMLID_40_" class="st9" cx="476" cy="36" r="26.7"/>
	<text id="XMLID_39_" transform="matrix(1 0 0 1 467.0789 44.8913)" class="st3 st12 st13">2</text>
	<circle id="XMLID_11_" class="st9" cx="810" cy="36" r="26.7"/>
	<text id="XMLID_9_" transform="matrix(1 0 0 1 801.1277 44.8913)" class="st3 st12 st13">3</text>
</g>
<g id="arrows">
	<g id="XMLID_3_">
		<g id="XMLID_127_">
			<line id="XMLID_135_" class="st14" x1="290" y1="203" x2="328" y2="203"/>
			<g id="XMLID_128_">
				<polygon id="XMLID_133_" class="st9" points="314.4,219.4 311.7,216.4 326.1,203 311.7,189.6 314.4,186.6 332,203 				"/>
			</g>
		</g>
	</g>
	<g id="XMLID_15_">
		<g id="XMLID_141_">
			<line id="XMLID_151_" class="st14" x1="624" y1="203" x2="662" y2="203"/>
			<g id="XMLID_142_">
				<polygon id="XMLID_150_" class="st9" points="648.4,219.4 645.7,216.4 660.1,203 645.7,189.6 648.4,186.6 666,203 				"/>
			</g>
		</g>
	</g>
</g>
</svg>
