<svg xmlns="http://www.w3.org/2000/svg" viewBox="0 0 960 560"><style>.st0{display:none}.st1{display:inline;fill:#daefe4}.st2{fill:#e6e6e6}.st3{fill:#fff}.st4{fill:#f2f2f2}.st5{fill:#e6b110}.st6{font-family:&apos;OpenSans&apos;}.st7{font-size:14.128px}.st8{fill:none;stroke:#0f88eb;stroke-miterlimit:10}.st9{fill:#0f88eb}.st10{fill:#0071bc}.st11{font-size:18px}.st12{font-family:&apos;FuturaBT-Bold&apos;}.st13{font-size:28.2353px}.st14{fill:none;stroke:#0f88eb;stroke-width:4;stroke-miterlimit:10}</style><g id="Layer_2" class="st0"><path id="XMLID_290_" class="st1" d="M0 0h960v560H0z"/></g><g id="shadow"><path id="XMLID_1_" class="st2" d="M8.6 41.5h277v451.2H8.6z"/><path id="XMLID_44_" class="st2" d="M676.9 41.5h277v451.2h-277z"/><path id="XMLID_63_" class="st2" d="M342.5 41h277v302.7h-277z"/></g><g id="tiles"><path id="XMLID_269_" class="st3" d="M2.4 36h277v451.2H2.4z"/><path id="XMLID_268_" class="st3" d="M671.9 36h277v451.2h-277z"/><path id="XMLID_181_" class="st3" d="M337.2 36h277v302.7h-277z"/></g><g id="Layer_1"><g id="XMLID_5_"><path id="XMLID_117_" class="st4" d="M208 186.1H80.1c-4.4 0-8.1-3.6-8.1-8.1v-28.6c0-4.4 3.6-8.1 8.1-8.1H208c4.4 0 8.1 3.6 8.1 8.1V178c0 4.4-3.6 8.1-8.1 8.1z"/></g><g id="XMLID_163_"><path id="XMLID_165_" class="st5" d="M204.8 183.1H76.9c-4.4 0-8.1-3.6-8.1-8.1v-28.6c0-4.4 3.6-8.1 8.1-8.1h127.9c4.4 0 8.1 3.6 8.1 8.1V175c0 4.4-3.6 8.1-8.1 8.1z"/></g><text id="XMLID_162_" transform="translate(87.413 164.838)" class="st3 st6 st7">Upload STL Files</text><g id="XMLID_17_"><path id="XMLID_45_" class="st4" d="M867.7 263.6H759.1c-4.4 0-8.1-3.6-8.1-8.1v-28.6c0-4.4 3.6-8.1 8.1-8.1h108.6c4.4 0 8.1 3.6 8.1 8.1v28.6c0 4.4-3.7 8.1-8.1 8.1z"/></g><g id="XMLID_161_"><path id="XMLID_125_" class="st5" d="M864.7 260.6H756.1c-4.4 0-8.1-3.6-8.1-8.1v-28.6c0-4.4 3.6-8.1 8.1-8.1h108.6c4.4 0 8.1 3.6 8.1 8.1v28.6c0 4.4-3.6 8.1-8.1 8.1z"/></g><text id="XMLID_160_" transform="translate(764.067 242.342)" class="st3 st6 st7">Filter and Sort</text><g id="XMLID_12_"><path id="XMLID_41_" class="st4" d="M914.4 186.1H712.8c-4.4 0-8.1-3.6-8.1-8.1v-28.6c0-4.4 3.6-8.1 8.1-8.1h201.7c4.4 0 8.1 3.6 8.1 8.1V178c-.1 4.4-3.7 8.1-8.2 8.1z"/></g><g id="XMLID_157_"><path id="XMLID_129_" class="st5" d="M911.2 183.1H709.6c-4.4 0-8.1-3.6-8.1-8.1v-28.6c0-4.4 3.6-8.1 8.1-8.1h201.7c4.4 0 8.1 3.6 8.1 8.1V175c-.1 4.4-3.7 8.1-8.2 8.1z"/></g><text id="XMLID_156_" transform="translate(712.692 164.84)" class="st3 st6 st7">View Recommended Services</text><g id="XMLID_24_"><path id="XMLID_124_" class="st4" d="M867.7 341.7H759.1c-4.4 0-8.1-3.6-8.1-8.1V305c0-4.4 3.6-8.1 8.1-8.1h108.6c4.4 0 8.1 3.6 8.1 8.1v28.6c0 4.5-3.6 8.1-8.1 8.1z"/></g><g id="XMLID_153_"><path id="XMLID_130_" class="st5" d="M864.7 338.7H756.1c-4.4 0-8.1-3.6-8.1-8.1V302c0-4.4 3.6-8.1 8.1-8.1h108.6c4.4 0 8.1 3.6 8.1 8.1v28.6c0 4.5-3.6 8.1-8.1 8.1z"/></g><text id="XMLID_152_" transform="translate(759.99 320.507)" class="st3 st6 st7">Select a Service</text><g id="XMLID_32_"><path id="XMLID_138_" class="st4" d="M894.3 419.7H732.6c-4.4 0-8.1-3.6-8.1-8.1V383c0-4.4 3.6-8.1 8.1-8.1h161.7c4.4 0 8.1 3.6 8.1 8.1v28.6c0 4.5-3.7 8.1-8.1 8.1z"/></g><g id="XMLID_149_"><path id="XMLID_137_" class="st5" d="M891.8 416.7H730.1c-4.4 0-8.1-3.6-8.1-8.1V380c0-4.4 3.6-8.1 8.1-8.1h161.7c4.4 0 8.1 3.6 8.1 8.1v28.6c0 4.5-3.6 8.1-8.1 8.1z"/></g><text id="XMLID_148_" transform="translate(733.728 398.51)" class="st3 st6 st7">Finalize Material Details</text><g id="XMLID_59_"><path id="XMLID_134_" class="st4" d="M560.4 186.1H396.8c-4.4 0-8.1-3.6-8.1-8.1v-28.6c0-4.4 3.6-8.1 8.1-8.1h163.6c4.4 0 8.1 3.6 8.1 8.1V178c0 4.4-3.6 8.1-8.1 8.1z"/></g><g id="XMLID_103_"><path id="XMLID_97_" class="st5" d="M557.5 183.1H393.9c-4.4 0-8.1-3.6-8.1-8.1v-28.6c0-4.4 3.6-8.1 8.1-8.1h163.6c4.4 0 8.1 3.6 8.1 8.1V175c0 4.4-3.6 8.1-8.1 8.1z"/></g><text id="XMLID_92_" transform="translate(398.354 164.838)" class="st3 st6 st7">Scroll Material Features</text><g id="XMLID_7_"><path id="XMLID_110_" class="st4" d="M569.4 263.6H388.6c-4.4 0-8.1-3.6-8.1-8.1v-28.6c0-4.4 3.6-8.1 8.1-8.1h180.8c4.4 0 8.1 3.6 8.1 8.1v28.6c0 4.4-3.6 8.1-8.1 8.1z"/></g><g id="XMLID_61_"><path id="XMLID_98_" class="st5" d="M566.2 260.6H385.5c-4.4 0-8.1-3.6-8.1-8.1v-28.6c0-4.4 3.6-8.1 8.1-8.1h180.8c4.4 0 8.1 3.6 8.1 8.1v28.6c-.1 4.4-3.7 8.1-8.2 8.1z"/></g><text id="XMLID_60_" transform="translate(390.398 242.342)" class="st3 st6 st7">Select a Material Category</text><g id="XMLID_8_"><path id="XMLID_91_" class="st4" d="M248.8 263.6H39.4c-4.4 0-8.1-3.6-8.1-8.1v-28.6c0-4.4 3.6-8.1 8.1-8.1h209.4c4.4 0 8.1 3.6 8.1 8.1v28.6c0 4.4-3.6 8.1-8.1 8.1z"/></g><g id="XMLID_155_"><path id="XMLID_62_" class="st5" d="M245.6 260.6H36.1c-4.4 0-8.1-3.6-8.1-8.1v-28.6c0-4.4 3.6-8.1 8.1-8.1h209.4c4.4 0 8.1 3.6 8.1 8.1v28.6c.1 4.4-3.6 8.1-8 8.1z"/></g><text id="XMLID_154_" transform="translate(48.782 242.342)" class="st3 st6 st7">Preview Models in 3D Space</text><g id="XMLID_10_"><path id="XMLID_108_" class="st4" d="M228.2 341.7H62c-4.4 0-8.1-3.6-8.1-8.1V305c0-4.4 3.6-8.1 8.1-8.1h166.3c4.4 0 8.1 3.6 8.1 8.1v28.6c-.1 4.5-3.7 8.1-8.2 8.1z"/></g><g id="XMLID_147_"><path id="XMLID_109_" class="st5" d="M224 338.7H57.7c-4.4 0-8.1-3.6-8.1-8.1V302c0-4.4 3.6-8.1 8.1-8.1H224c4.4 0 8.1 3.6 8.1 8.1v28.6c0 4.5-3.6 8.1-8.1 8.1z"/></g><text id="XMLID_146_" transform="translate(66.249 320.507)" class="st3 st6 st7">Customize Parameters</text><g id="XMLID_14_"><path id="XMLID_118_" class="st4" d="M214.4 419.7H72.8c-4.4 0-8.1-3.6-8.1-8.1V383c0-4.4 3.6-8.1 8.1-8.1h141.6c4.4 0 8.1 3.6 8.1 8.1v28.6c0 4.5-3.7 8.1-8.1 8.1z"/></g><g id="XMLID_143_"><path id="XMLID_145_" class="st5" d="M211.6 416.7H70.1c-4.4 0-8.1-3.6-8.1-8.1V380c0-4.4 3.6-8.1 8.1-8.1h141.6c4.4 0 8.1 3.6 8.1 8.1v28.6c-.1 4.5-3.7 8.1-8.2 8.1z"/></g><text id="XMLID_139_" transform="translate(72.592 398.51)" class="st3 st6 st7">View Printability Test</text><g id="XMLID_116_"><path id="XMLID_105_" class="st5" d="M141 183v33"/><g id="XMLID_100_"><path id="XMLID_104_" class="st8" d="M140.5 183v32"/><g id="XMLID_101_"><path id="XMLID_102_" class="st9" d="M136.8 211.6l.7-.7 3.4 3.6 3.3-3.6.8.7-4.1 4.4z"/></g></g></g><g id="XMLID_106_"><path id="XMLID_96_" class="st5" d="M141 261v33"/><g id="XMLID_87_"><path id="XMLID_95_" class="st8" d="M140.5 261v32"/><g id="XMLID_89_"><path id="XMLID_94_" class="st9" d="M136.8 289.6l.7-.7 3.4 3.6 3.3-3.6.8.7-4.1 4.4z"/></g></g></g><g id="XMLID_37_"><path id="XMLID_85_" class="st5" d="M141 339v33"/><g id="XMLID_77_"><path id="XMLID_84_" class="st8" d="M140.5 339v32"/><g id="XMLID_82_"><path id="XMLID_83_" class="st9" d="M136.8 367.6l.7-.7 3.4 3.6 3.3-3.6.8.7-4.1 4.4z"/></g></g></g><g id="XMLID_13_"><path id="XMLID_136_" class="st5" d="M476 183v33"/><g id="XMLID_112_"><path id="XMLID_119_" class="st8" d="M475.5 183v32"/><g id="XMLID_113_"><path id="XMLID_115_" class="st9" d="M471.6 211.6l.8-.7 3.3 3.6 3.4-3.6.7.7-4.1 4.4z"/></g></g></g><g id="XMLID_25_"><path id="XMLID_132_" class="st5" d="M810 183v33"/><g id="XMLID_73_"><path id="XMLID_131_" class="st8" d="M809.5 183v32"/><g id="XMLID_74_"><path id="XMLID_123_" class="st9" d="M805.9 211.4l.7-.6 3.3 3.6 3.4-3.6.7.6-4.1 4.4z"/></g></g></g><g id="XMLID_78_"><g id="XMLID_67_"><path id="XMLID_71_" class="st8" d="M810.5 261v32"/><g id="XMLID_68_"><path id="XMLID_69_" class="st9" d="M806.3 289.6l.7-.7 3.4 3.6 3.3-3.6.8.7-4.1 4.4z"/></g></g></g><g id="XMLID_70_"><path id="XMLID_64_" class="st5" d="M810 339v33"/><g id="XMLID_51_"><path id="XMLID_57_" class="st8" d="M810.5 339v32"/><g id="XMLID_52_"><path id="XMLID_53_" class="st9" d="M806.3 367.6l.7-.7 3.4 3.6 3.3-3.6.8.7-4.1 4.4z"/></g></g></g><text id="XMLID_4_" transform="translate(39.808 104.08)" class="st10 st6 st11">UPLOAD YOUR MODELS</text><text id="XMLID_46_" transform="translate(393.285 104.08)" class="st10 st6 st11">SELECT A MATERIAL</text><text id="XMLID_19_" transform="translate(771.792 92.08)"><tspan x="0" y="0" class="st10 st6 st11">CHOOSE </tspan><tspan x="-61" y="24" class="st10 st6 st11">A 3D PRINTING SERVICE</tspan></text></g><g id="sequence"><circle id="XMLID_31_" class="st9" cx="141" cy="36" r="26.7"/><text id="XMLID_29_" transform="translate(132.079 44.795)" class="st3 st12 st13">1</text><circle id="XMLID_40_" class="st9" cx="476" cy="36" r="26.7"/><text id="XMLID_39_" transform="translate(467.079 44.891)" class="st3 st12 st13">2</text><circle id="XMLID_11_" class="st9" cx="810" cy="36" r="26.7"/><text id="XMLID_9_" transform="translate(801.128 44.891)" class="st3 st12 st13">3</text></g><g id="arrows"><g id="XMLID_3_"><g id="XMLID_127_"><path id="XMLID_135_" class="st14" d="M290 203h38"/><g id="XMLID_128_"><path id="XMLID_133_" class="st9" d="M314.4 219.4l-2.7-3 14.4-13.4-14.4-13.4 2.7-3L332 203z"/></g></g></g><g id="XMLID_15_"><g id="XMLID_141_"><path id="XMLID_151_" class="st14" d="M624 203h38"/><g id="XMLID_142_"><path id="XMLID_150_" class="st9" d="M648.4 219.4l-2.7-3 14.4-13.4-14.4-13.4 2.7-3L666 203z"/></g></g></g></g></svg>