<?xml version="1.0" encoding="utf-8"?>
<!-- Generator: Adobe Illustrator 19.0.0, SVG Export Plug-In . SVG Version: 6.00 Build 0)  -->
<svg version="1.1" id="Layer_1" xmlns="http://www.w3.org/2000/svg" xmlns:xlink="http://www.w3.org/1999/xlink" x="0px" y="0px"
	 viewBox="353 -181.9 1217.2 746.9" style="enable-background:new 353 -181.9 1217.2 746.9;" xml:space="preserve">
<style type="text/css">
	.st0{display:none;}
	.st1{display:inline;fill:#DAEFE4;}
	.st2{fill:#E6E6E6;}
	.st3{fill:#FFFFFF;}
	.st4{fill:#E74C3C;}
	.st5{fill:#F1C40F;}
	.st6{fill:#27AE60;}
	.st7{fill:#3498DB;}
	.st8{fill:#9B59B6;}
	.st9{fill:#F39C12;}
	.st10{fill:#4D4D4D;}
	.st11{font-family:'OpenSans';}
	.st12{font-size:36px;}
	.st13{fill:#333333;}
	.st14{font-size:24px;}
	.st15{fill:#0071BC;}
</style>
<g id="Layer_3" class="st0">
	<path id="XMLID_290_" class="st1" d="M190.8-209.2h1495.4v811.6H190.8V-209.2z"/>
</g>
<g id="Layer_2">
	<path id="XMLID_63_" class="st2" d="M362.9-101.5h1207.3v260.6H362.9V-101.5z"/>
	<path id="XMLID_181_" class="st3" d="M353-109.5h1207.3v260.6H353V-109.5z"/>
	<path id="XMLID_3_" class="st2" d="M363.9,304.5H811v260.6H363.9V304.5z"/>
	<path id="XMLID_2_" class="st3" d="M353,296.1h447.1v260.6H353V296.1z"/>
</g>
<g id="Layer_1_1_">
	<circle id="XMLID_62_" class="st4" cx="446" cy="-36.3" r="33"/>
	<circle id="XMLID_61_" class="st5" cx="825.4" cy="-36.3" r="33"/>
	<circle id="XMLID_60_" class="st6" cx="1091.4" cy="-36.3" r="33"/>
	<circle id="XMLID_59_" class="st7" cx="446" cy="77.8" r="33"/>
	<circle id="XMLID_58_" class="st8" cx="825.4" cy="77.8" r="33"/>
	<circle id="XMLID_57_" class="st9" cx="1091.4" cy="77.8" r="33"/>
	<text id="XMLID_56_" transform="matrix(1 0 0 1 491.0532 -25.4839)" class="st10 st11 st12">×</text>
	<text id="XMLID_55_" transform="matrix(1 0 0 1 521.0001 -28.9999)" class="st13 st11 st14">Number of Objects</text>
	<text id="XMLID_54_" transform="matrix(1 0 0 1 750.9999 -26.0428)" class="st10 st11 st12">+</text>
	<text id="XMLID_53_" transform="matrix(1 0 0 1 869.329 -25.734)" class="st10 st11 st12">×</text>
	<text id="XMLID_52_" transform="matrix(1 0 0 1 899.277 -29.25)" class="st13 st11 st14">Volume</text>
	<text id="XMLID_51_" transform="matrix(1 0 0 1 1018.329 -25.733)" class="st10 st11 st12">+</text>
	<text id="XMLID_31_" transform="matrix(1 0 0 1 1138.329 -25.733)" class="st10 st11 st12">×</text>
	<text id="XMLID_30_" transform="matrix(1 0 0 1 1168.277 -29.249)" class="st13 st11 st14">Volume of Bounding Box</text>
	<text id="XMLID_29_" transform="matrix(1 0 0 1 1466.329 -25.733)" class="st10 st11 st12">+</text>
	<text id="XMLID_28_" transform="matrix(1 0 0 1 491.0532 88.5601)" class="st10 st11 st12">×</text>
	<text id="XMLID_27_" transform="matrix(1 0 0 1 521.0001 85.0451)" class="st13 st11 st14">Surface Area</text>
	<text id="XMLID_26_" transform="matrix(1 0 0 1 750.9999 88.0002)" class="st10 st11 st12">+</text>
	<text id="XMLID_25_" transform="matrix(1 0 0 1 869.329 88.31)" class="st10 st11 st12">×</text>
	<text id="XMLID_24_" transform="matrix(1 0 0 1 899.277 84.795)" class="st13 st11 st14">Height</text>
	<text id="XMLID_23_" transform="matrix(1 0 0 1 1018.329 88.31)" class="st10 st11 st12">+</text>
	<text id="XMLID_22_" transform="matrix(1 0 0 1 1138.329 88.31)" class="st10 st11 st12">×</text>
	<text id="XMLID_21_" transform="matrix(1 0 0 1 1254.323 88.139)" class="st10 st11 st12">=</text>
	<text id="XMLID_7_" transform="matrix(1 0 0 1 1168.276 84.623)" class="st13 st11 st14">Time</text>
	<text id="XMLID_5_" transform="matrix(1 0 0 1 1309.77 87.139)" class="st15 st11 st12">Total Price</text>
	<circle id="XMLID_18_" class="st4" cx="446.6" cy="383.4" r="33"/>
	<circle id="XMLID_17_" class="st5" cx="576.6" cy="383.4" r="33"/>
	<circle id="XMLID_16_" class="st6" cx="706.6" cy="383.4" r="33"/>
	<circle id="XMLID_15_" class="st7" cx="446.6" cy="469.4" r="33"/>
	<circle id="XMLID_14_" class="st8" cx="576.6" cy="469.4" r="33"/>
	<circle id="XMLID_13_" class="st9" cx="706.6" cy="469.4" r="33"/>
	<text id="XMLID_4_" transform="matrix(1 0 0 1 356.09 -151.05)" class="st15 st11 st12">PRICING POLYNOMIAL</text>
	<text id="XMLID_8_" transform="matrix(1 0 0 1 356.09 255.93)" class="st15 st11 st12">INPUT COEFFICIENTS</text>
</g>
</svg>
